<svg width="1200" height="630" viewBox="0 0 1200 630" fill="none" xmlns="http://www.w3.org/2000/svg">
<rect width="1200" height="630" fill="white"/>
<g filter="url(#filter0_d)">
<rect x="525" y="240" width="150" height="150" rx="7" fill="#FF9E93"/>
<rect x="522.5" y="237.5" width="155" height="155" rx="9.5" stroke="#FF7262" stroke-width="5"/>
</g>
<path d="M751.404 521.096C753.942 523.635 758.058 523.635 760.596 521.096L801.962 479.73C804.5 477.192 804.5 473.076 801.962 470.538C799.424 468 795.308 468 792.77 470.538L756 507.308L719.23 470.538C716.692 468 712.576 468 710.038 470.538C707.5 473.076 707.5 477.192 710.038 479.73L751.404 521.096ZM695.958 338.95C720.44 354.864 735.712 369.983 745.062 384.403C754.355 398.736 758.001 412.687 758.76 426.665C759.528 440.821 757.348 455.014 754.824 470.024C752.337 484.818 749.5 500.468 749.5 516.5H762.5C762.5 501.782 765.101 487.307 767.644 472.179C770.152 457.267 772.597 441.742 771.74 425.96C770.874 410.001 766.645 393.795 755.969 377.331C745.351 360.954 728.56 344.636 703.042 328.05L695.958 338.95Z" fill="#FF9E93"/>
<path d="M350.557 551.976C346.981 552.284 343.832 549.634 343.524 546.057L338.508 487.773C338.2 484.196 340.85 481.047 344.427 480.739C348.004 480.432 351.152 483.081 351.46 486.658L355.919 538.467L407.727 534.008C411.304 533.7 414.453 536.35 414.761 539.927C415.068 543.504 412.419 546.652 408.842 546.96L350.557 551.976ZM506.986 353.773C478.312 368.605 460.593 381.239 448.572 393.352C436.65 405.365 430.055 417.142 423.998 430.819C411.663 458.678 401.779 494.066 354.973 549.685L345.027 541.315C390.368 487.434 399.484 454.072 412.112 425.556C418.537 411.045 425.914 397.728 439.344 384.195C452.676 370.761 471.688 357.395 501.014 342.227L506.986 353.773Z" fill="#FF9E93"/>
<path d="M316.891 168.964C319.672 166.694 323.767 167.109 326.036 169.891L363.019 215.218C365.288 218 364.873 222.094 362.092 224.364C359.31 226.633 355.215 226.218 352.946 223.436L320.073 183.146L279.782 216.019C277.001 218.288 272.906 217.873 270.636 215.092C268.367 212.31 268.782 208.215 271.564 205.946L316.891 168.964ZM508.986 277.773C450.045 308.26 398.548 311.812 362.714 291.867C326.545 271.735 308.874 229.16 314.533 173.344L327.467 174.656C322.126 227.34 338.955 263.765 369.036 280.508C399.452 297.437 445.955 295.74 503.014 266.226L508.986 277.773Z" fill="#FF9E93"/>
<path d="M921.468 126.082C925.012 125.513 928.348 127.924 928.918 131.468L938.205 189.226C938.775 192.77 936.364 196.106 932.82 196.676C929.275 197.246 925.94 194.834 925.37 191.29L917.114 139.95L865.774 148.205C862.23 148.775 858.894 146.364 858.324 142.82C857.754 139.275 860.166 135.94 863.71 135.37L921.468 126.082ZM679.787 219.165C711.707 196.949 737.934 187.117 760.752 183.255C783.425 179.418 802.449 181.566 819.008 182.703C835.706 183.849 849.886 183.981 864.903 177.412C879.977 170.818 896.709 157.081 917.232 128.692L927.768 136.308C906.541 165.669 888.148 181.432 870.113 189.322C852.02 197.237 835.107 196.838 818.118 195.672C800.989 194.496 783.732 192.551 762.921 196.073C742.254 199.571 717.794 208.551 687.214 229.835L679.787 219.165Z" fill="#FF9E93"/>
<path d="M552.865 341.432C576.934 321.427 612.937 314.927 652.865 326.432" stroke="black" stroke-width="8" stroke-linecap="round"/>
<ellipse cx="573" cy="287" rx="9" ry="10" fill="#330505"/>
<ellipse cx="631" cy="287" rx="9" ry="10" fill="#330505"/>
<defs>
<filter id="filter0_d" x="516" y="235" width="168" height="168" filterUnits="userSpaceOnUse" color-interpolation-filters="sRGB">
<feFlood flood-opacity="0" result="BackgroundImageFix"/>
<feColorMatrix in="SourceAlpha" type="matrix" values="0 0 0 0 0 0 0 0 0 0 0 0 0 0 0 0 0 0 127 0"/>
<feOffset dy="4"/>
<feGaussianBlur stdDeviation="2"/>
<feColorMatrix type="matrix" values="0 0 0 0 0 0 0 0 0 0 0 0 0 0 0 0 0 0 0.25 0"/>
<feBlend mode="normal" in2="BackgroundImageFix" result="effect1_dropShadow"/>
<feBlend mode="normal" in="SourceGraphic" in2="effect1_dropShadow" result="shape"/>
</filter>
</defs>
</svg>
