<?xml version="1.0" encoding="UTF-8"?>
<svg width="143px" height="38px" viewBox="0 0 143 38" version="1.1" xmlns="http://www.w3.org/2000/svg" xmlns:xlink="http://www.w3.org/1999/xlink">
    <g id="Desktop" stroke="none" stroke-width="1" fill="none" fill-rule="evenodd">
        <g id="26_Subnavigation_Sticky" transform="translate(-50.000000, -21.000000)">
            <g id="Navigation-on-White">
                <g id="Group-3" transform="translate(50.000000, 21.333333)">
                    <path d="M139.706188,22.9281222 L139.706188,23.8212039 L139.973479,23.8212039 C140.214769,23.8212039 140.370775,23.7313567 140.370775,23.44115 L140.370775,23.3072776 C140.370775,23.0458221 140.266771,22.9281222 140.017161,22.9281222 L139.706188,22.9281222 Z M140.431097,25.5938903 C140.388456,25.4968553 140.370775,25.4447438 140.370775,25.146451 L140.370775,24.8041329 C140.370775,24.4627133 140.232449,24.3432165 139.930837,24.3432165 L139.706188,24.3432165 L139.706188,25.5938903 L139.050962,25.5938903 L139.050962,22.4052111 L140.051482,22.4052111 C140.724389,22.4052111 141.026001,22.6810422 141.026001,23.2398922 L141.026001,23.3072776 C141.026001,23.686433 140.887676,23.9182389 140.576703,24.0368373 L140.576703,24.0521114 C140.913677,24.1707097 141.026001,24.4312668 141.026001,24.8113207 L141.026001,25.1545372 C141.026001,25.325247 141.035361,25.4600179 141.104004,25.5938903 L140.431097,25.5938903 Z M139.99948,26.1455525 C141.361934,26.1455525 142.379095,25.2443845 142.379095,23.9999999 C142.379095,22.7556154 141.361934,21.8544474 139.99948,21.8544474 C138.637025,21.8544474 137.619865,22.7556154 137.619865,23.9999999 C137.619865,25.2443845 138.637025,26.1455525 139.99948,26.1455525 Z M139.99948,21.3333333 C141.707228,21.3333333 143,22.4501348 143,24 C143,25.5489668 141.707228,26.6666667 139.99948,26.6666667 C138.291732,26.6666667 137,25.5489668 137,24 C137,22.4501348 138.291732,21.3333333 139.99948,21.3333333 Z" id="Fill-1" fill="#383E41"></path>
                    <path d="M93.3409568,19.3863818 L96,19.3863818 L96,4.61361904 L93.6938733,4.61361904 L93.6938733,13.4561753 L91.03483,4.61361904 L87.7886068,4.61361904 L87.7886068,19.3863818 L90.1180585,19.3863818 L90.1180585,8.68654303 L93.3409568,19.3863818 Z M81.9533151,7.23036787 L83.2006924,14.7013363 L80.7059379,14.7013363 L81.9533151,7.23036787 Z M83.9765002,4.61361904 L80.1887327,4.61361904 L77.5530144,19.3863818 L79.9301301,19.3863818 L80.3773605,16.7059648 L83.5525948,16.7059648 L84.0008393,19.3863818 L86.6122185,19.3863818 L83.9765002,4.61361904 Z M69.0820045,4.61361904 L65.4828647,4.61361904 L65.4828647,19.3863818 L67.7413275,19.3863818 L67.7413275,8.94030493 L69.6701986,19.3863818 L72.1172891,19.3863818 L73.9072248,8.79295931 L73.9072248,19.3863818 L76.3533012,19.3863818 L76.3533012,4.61361904 L72.7531473,4.61361904 L70.989579,15.1015347 L69.0820045,4.61361904 Z M59.8828507,6.7246632 C60.8006365,6.7246632 61.2002028,7.18852904 61.2002028,8.24359643 L61.2002028,9.69977134 C61.2002028,10.8803554 60.6120087,11.261453 59.6475731,11.261453 L58.6354735,11.261453 L58.6354735,6.7246632 L59.8828507,6.7246632 Z M64.0945237,19.3863818 C63.8359211,18.8379286 63.8125962,18.3094854 63.8125962,17.5918576 L63.8125962,15.3134578 C63.8125962,13.7726955 63.3886907,12.6548698 62.0936495,12.1682655 C63.2467128,11.6825706 63.7882571,10.6911711 63.7882571,9.17314739 L63.7882571,8.01075417 C63.7882571,5.73144476 62.6341796,4.61361904 59.9528256,4.61361904 L56.0474192,4.61361904 L56.0474192,19.3863818 L58.6354735,19.3863818 L58.6354735,13.371588 L59.5299343,13.371588 C60.7053084,13.371588 61.2235278,13.8782023 61.2235278,15.2497899 L61.2235278,17.5709382 C61.2235278,18.7733512 61.3178417,19.0061937 61.4588054,19.3863818 L64.0945237,19.3863818 Z M49.9768499,6.72466338 L54.4471255,6.72466338 L54.4471255,4.61361904 L47.3887956,4.61361904 L47.3887956,19.3863818 L54.4471255,19.3863818 L54.4471255,17.276247 L49.9768499,17.276247 L49.9768499,12.9495611 L53.5293398,12.9495611 L53.5293398,10.8394263 L49.9768499,10.8394263 L49.9768499,6.72466338 Z M42.09302,13.2660808 L43.2714366,13.2660808 L43.2714366,15.9883365 C43.2714366,17.0434038 42.7522031,17.4235919 41.9287313,17.4235919 C41.1062736,17.4235919 40.5880543,17.0434038 40.5880543,15.9883365 L40.5880543,8.01075398 C40.5880543,6.95568664 41.1062736,6.55548868 41.9287313,6.55548868 C42.7522031,6.55548868 43.2714366,6.95568664 43.2714366,8.01075398 L43.2714366,9.59426454 L45.7175129,9.59426454 L45.7175129,8.15900914 C45.7175129,5.7960221 44.4001609,4.44444444 41.8587565,4.44444444 C39.3173521,4.44444444 38,5.7960221 38,8.15900914 L38,15.8409909 C38,18.2039779 39.3173521,19.5555556 41.8587565,19.5555556 C44.4001609,19.5555556 45.7175129,18.2039779 45.7175129,15.8409909 L45.7175129,11.1559461 L42.09302,11.1559461 L42.09302,13.2660808 Z" id="Fill-2" fill="#383E41"></path>
                    <path d="M130.817317,24.5016687 C131.729353,24.5016687 132.125978,24.9655625 132.125978,26.0216029 L132.125978,27.4778655 C132.125978,28.6585205 131.541107,29.0387315 130.583771,29.0387315 L129.580128,29.0387315 L129.580128,24.5016687 L130.817317,24.5016687 Z M135,37.1641494 C134.741288,36.6147536 134.718134,36.0880978 134.718134,35.3704268 L134.718134,33.0909802 C134.718134,31.5501252 134.298356,30.4322322 133.013855,29.9455986 C134.15843,29.4607841 134.694981,28.4684153 134.694981,26.9503002 L134.694981,25.7887466 C134.694981,23.5093 133.550406,22.391407 130.887783,22.391407 L127.011125,22.391407 L127.011125,37.1641494 L129.580128,37.1641494 L129.580128,31.1499032 L130.468005,31.1499032 C131.635733,31.1499032 132.149131,31.6556383 132.149131,33.0273085 L132.149131,35.3495061 C132.149131,36.5519915 132.243758,36.7839384 132.382677,37.1641494 L135,37.1641494 Z M117.552523,33.6194546 C117.552523,35.9816743 118.929637,37.3333333 121.452334,37.3333333 C123.975031,37.3333333 125.352145,35.9816743 125.352145,33.6194546 L125.352145,25.9361009 C125.352145,23.5729716 123.975031,22.2222222 121.452334,22.2222222 C118.929637,22.2222222 117.552523,23.5729716 117.552523,25.9361009 L117.552523,33.6194546 Z M120.120519,25.7887464 C120.120519,24.7336156 120.634924,24.3324839 121.452334,24.3324839 C122.268737,24.3324839 122.784149,24.7336156 122.784149,25.7887464 L122.784149,33.7668091 C122.784149,34.82194 122.268737,35.222162 121.452334,35.222162 C120.634924,35.222162 120.120519,34.82194 120.120519,33.7668091 L120.120519,25.7887464 Z M108.653625,24.5016688 L108.653625,22.391407 L116.595187,22.391407 L116.595187,24.5016688 L113.908404,24.5016688 L113.908404,37.1641494 L111.338394,37.1641494 L111.338394,24.5016688 L108.653625,24.5016688 Z M104.425642,25.0083135 L105.66283,32.4797312 L103.187447,32.4797312 L104.425642,25.0083135 Z M106.433934,22.391407 L102.673042,22.391407 L100.057733,37.1641494 L102.41735,37.1641494 L102.860281,34.4844807 L106.014156,34.4844807 L106.457087,37.1641494 L109.049243,37.1641494 L106.433934,22.391407 Z M95.1522655,24.5016687 C96.0643019,24.5016687 96.460927,24.9655625 96.460927,26.0216029 L96.460927,27.4778655 C96.460927,28.6585205 95.8770626,29.0387315 94.9187198,29.0387315 L93.9150771,29.0387315 L93.9150771,24.5016687 L95.1522655,24.5016687 Z M99.3339422,37.1641494 C99.0772432,36.6147536 99.0530833,36.0880978 99.0530833,35.3704268 L99.0530833,33.0909802 C99.0530833,31.5501252 98.633305,30.4322322 97.3477968,29.9455986 C98.4923722,29.4607841 99.0299301,28.4684153 99.0299301,26.9503002 L99.0299301,25.7887466 C99.0299301,23.5093 97.8863613,22.391407 95.2237386,22.391407 L91.346074,22.391407 L91.346074,37.1641494 L93.9150771,37.1641494 L93.9150771,31.1499032 L94.8029536,31.1499032 C95.9696756,31.1499032 96.4840802,31.6556383 96.4840802,33.0273085 L96.4840802,35.3495061 C96.4840802,36.5519915 96.5776998,36.7839384 96.7176259,37.1641494 L99.3339422,37.1641494 Z M85.3191847,24.5016688 L89.7575603,24.5016688 L89.7575603,22.391407 L82.7501816,22.391407 L82.7501816,37.1641494 L89.7575603,37.1641494 L89.7575603,35.0538876 L85.3191847,35.0538876 L85.3191847,30.7278508 L88.8465306,30.7278508 L88.8465306,28.617589 L85.3191847,28.617589 L85.3191847,24.5016688 Z M74.7864734,37.1641494 L81.5834596,37.1641494 L81.5834596,35.0538876 L77.3554765,35.0538876 L77.3554765,22.391407 L74.7864734,22.391407 L74.7864734,37.1641494 Z M68.7605907,24.5016688 L73.1979597,24.5016688 L73.1979597,22.391407 L66.190581,22.391407 L66.190581,37.1641494 L73.1979597,37.1641494 L73.1979597,35.0538876 L68.7605907,35.0538876 L68.7605907,30.7278508 L72.2879367,30.7278508 L72.2879367,28.617589 L68.7605907,28.617589 L68.7605907,24.5016688 Z M62.1971502,31.6556378 L62.1971502,33.7668091 C62.1971502,34.82194 61.6837523,35.2012413 60.8663422,35.2012413 C60.0489321,35.2012413 59.5345275,34.82194 59.5345275,33.7668091 L59.5345275,25.7887464 C59.5345275,24.7336156 60.0489321,24.3324839 60.8663422,24.3324839 C61.6837523,24.3324839 62.1971502,24.7336156 62.1971502,25.7887464 L62.1971502,27.3714427 L64.6262272,27.3714427 L64.6262272,25.9361009 C64.6262272,23.5729716 63.3185724,22.2222222 60.7958758,22.2222222 C58.2741858,22.2222222 56.9655244,23.5729716 56.9655244,25.9361009 L56.9655244,33.6194546 C56.9655244,35.9816743 58.2741858,37.3333333 60.7958758,37.3333333 C63.3185724,37.3333333 64.6262272,35.9816743 64.6262272,33.6194546 L64.6262272,31.6556378 L62.1971502,31.6556378 Z M53.1814795,31.6556378 L53.1814795,33.7668091 C53.1814795,34.82194 52.6680815,35.2012413 51.8496648,35.2012413 C51.0332614,35.2012413 50.5198634,34.82194 50.5198634,33.7668091 L50.5198634,25.7887464 C50.5198634,24.7336156 51.0332614,24.3324839 51.8496648,24.3324839 C52.6680815,24.3324839 53.1814795,24.7336156 53.1814795,25.7887464 L53.1814795,27.3714427 L55.6105565,27.3714427 L55.6105565,25.9361009 C55.6105565,23.5729716 54.3039083,22.2222222 51.7812117,22.2222222 C49.2585151,22.2222222 47.9498537,23.5729716 47.9498537,25.9361009 L47.9498537,33.6194546 C47.9498537,35.9816743 49.2585151,37.3333333 51.7812117,37.3333333 C54.3039083,37.3333333 55.6105565,35.9816743 55.6105565,33.6194546 L55.6105565,31.6556378 L53.1814795,31.6556378 Z M42.3669026,25.0083135 L43.6061043,32.4797312 L41.1307209,32.4797312 L42.3669026,25.0083135 Z M44.3762012,22.391407 L40.6163162,22.391407 L38,37.1641494 L40.3596173,37.1641494 L40.8035555,34.4844807 L43.9554163,34.4844807 L44.4003612,37.1641494 L46.9915108,37.1641494 L44.3762012,22.391407 Z" id="Fill-3" fill="#383E41"></path>
                    <path d="M7,23.1111111 C4.7646398,23.7137011 2.42901278,24.0333119 0,24.019575 L0,36.4444444 L7,36.4444444 L7,23.1111111 Z" id="Fill-4" fill="#000000"></path>
                    <path d="M8,22.6878437 L8,36.4444444 L15,36.4444444 L15,19.5555556 C12.8059261,20.8852188 10.4683331,21.9515481 8,22.6878437" id="Fill-5" fill="#9E2723"></path>
                    <path d="M16,18.5581175 L16,36.4444444 L23,36.4444444 L23,12.4444444 C20.8884054,14.7716584 18.5478664,16.846853 16,18.5581175" id="Fill-6" fill="#E0562A"></path>
                    <path d="M24,11.0934412 L24,36.4444444 L31,36.4444444 L31,0 C29.15686,3.95139159 26.8015728,7.74621359 24,11.0934412" id="Fill-7" fill="#FFB700"></path>
                </g>
            </g>
        </g>
    </g>
</svg>