<svg width="1200" height="630" viewBox="0 0 1200 630" fill="none" xmlns="http://www.w3.org/2000/svg">
<rect width="1200" height="630" fill="white"/>
<g filter="url(#filter0_d)">
<circle cx="370" cy="330" r="22" fill="#FF9E93" stroke="#FF9E93" stroke-width="6"/>
<circle cx="370" cy="255" r="97" fill="#FF9E93" stroke="#FF7262" stroke-width="6"/>
</g>
<path d="M219.95 414V393.072H226.83C227.982 393.072 229.038 393.179 229.998 393.392C230.979 393.605 231.822 393.968 232.526 394.48C233.23 394.992 233.784 395.664 234.19 396.496C234.595 397.307 234.798 398.32 234.798 399.536C234.798 400.688 234.595 401.691 234.19 402.544C233.784 403.397 233.219 404.112 232.494 404.688C231.79 405.243 230.947 405.659 229.966 405.936C229.006 406.192 227.96 406.32 226.83 406.32H223.662V414H219.95ZM223.662 403.344H226.542C229.614 403.344 231.15 402.075 231.15 399.536C231.15 398.213 230.766 397.307 229.998 396.816C229.23 396.304 228.078 396.048 226.542 396.048H223.662V403.344ZM239.681 414V393.072H243.777L246.273 401.232L247.137 404.368H247.265L248.097 401.232L250.625 393.072H254.721V414H251.457V405.552C251.457 404.997 251.479 404.336 251.521 403.568C251.564 402.8 251.607 402.011 251.649 401.2C251.713 400.389 251.777 399.611 251.841 398.864C251.905 398.117 251.959 397.488 252.001 396.976H251.905L250.497 401.84L248.193 408.464H246.081L243.809 401.84L242.433 396.976H242.337C242.401 397.488 242.465 398.117 242.529 398.864C242.593 399.611 242.647 400.389 242.689 401.2C242.753 402.011 242.796 402.8 242.817 403.568C242.86 404.336 242.881 404.997 242.881 405.552V414H239.681ZM261.877 414V393.072H275.253V396.208H265.589V402.128H273.813V405.264H265.589V414H261.877ZM301.084 414V393.072H305.18L307.676 401.232L308.54 404.368H308.668L309.5 401.232L312.028 393.072H316.124V414H312.86V405.552C312.86 404.997 312.881 404.336 312.924 403.568C312.966 402.8 313.009 402.011 313.052 401.2C313.116 400.389 313.18 399.611 313.244 398.864C313.308 398.117 313.361 397.488 313.404 396.976H313.308L311.9 401.84L309.596 408.464H307.484L305.212 401.84L303.836 396.976H303.74C303.804 397.488 303.868 398.117 303.932 398.864C303.996 399.611 304.049 400.389 304.092 401.2C304.156 402.011 304.198 402.8 304.22 403.568C304.262 404.336 304.284 404.997 304.284 405.552V414H301.084ZM326.991 414.384C326.223 414.384 325.519 414.267 324.879 414.032C324.239 413.819 323.685 413.509 323.215 413.104C322.746 412.699 322.383 412.219 322.127 411.664C321.871 411.088 321.743 410.459 321.743 409.776C321.743 408.901 321.946 408.133 322.351 407.472C322.757 406.789 323.397 406.213 324.271 405.744C325.146 405.275 326.266 404.891 327.631 404.592C328.997 404.293 330.65 404.08 332.591 403.952C332.527 403.056 332.207 402.32 331.631 401.744C331.055 401.168 330.127 400.88 328.847 400.88C327.951 400.88 327.066 401.051 326.191 401.392C325.338 401.712 324.506 402.096 323.695 402.544L322.351 400.08C323.311 399.525 324.41 399.024 325.647 398.576C326.885 398.128 328.175 397.904 329.519 397.904C331.717 397.904 333.391 398.491 334.543 399.664C335.695 400.816 336.271 402.491 336.271 404.688V414H333.263L332.975 412.048H332.879C332.047 412.688 331.119 413.243 330.095 413.712C329.093 414.16 328.058 414.384 326.991 414.384ZM328.111 411.504C328.901 411.504 329.658 411.333 330.383 410.992C331.13 410.629 331.866 410.16 332.591 409.584V406.256C331.183 406.363 330.01 406.512 329.071 406.704C328.133 406.875 327.386 407.099 326.831 407.376C326.277 407.653 325.882 407.973 325.647 408.336C325.413 408.677 325.295 409.061 325.295 409.488C325.295 410.192 325.562 410.704 326.095 411.024C326.65 411.344 327.322 411.504 328.111 411.504ZM344.099 414V398.288H347.139L347.459 401.84H347.555C348.365 400.56 349.336 399.589 350.467 398.928C351.619 398.245 352.877 397.904 354.243 397.904C354.883 397.904 355.427 397.957 355.875 398.064C356.344 398.149 356.813 398.309 357.283 398.544L356.515 401.648C356.003 401.477 355.544 401.36 355.139 401.296C354.755 401.211 354.264 401.168 353.667 401.168C352.579 401.168 351.533 401.477 350.531 402.096C349.528 402.715 348.621 403.792 347.811 405.328V414H344.099ZM363.286 414V391.408H366.998V405.552H367.126L374.198 398.288H378.294L372.182 404.56L378.966 414H374.934L369.974 406.832L366.998 409.904V414H363.286ZM391.434 414.384C390.239 414.384 389.119 414.203 388.074 413.84C387.028 413.456 386.111 412.912 385.322 412.208C384.554 411.504 383.946 410.64 383.498 409.616C383.05 408.592 382.826 407.429 382.826 406.128C382.826 404.848 383.05 403.707 383.498 402.704C383.946 401.68 384.543 400.816 385.29 400.112C386.058 399.387 386.922 398.843 387.882 398.48C388.863 398.096 389.887 397.904 390.954 397.904C392.127 397.904 393.162 398.096 394.058 398.48C394.954 398.843 395.711 399.355 396.33 400.016C396.948 400.656 397.418 401.435 397.738 402.352C398.058 403.269 398.218 404.272 398.218 405.36C398.218 405.723 398.196 406.075 398.154 406.416C398.132 406.736 398.1 407.003 398.058 407.216H386.506C386.719 408.688 387.306 409.776 388.266 410.48C389.226 411.184 390.442 411.536 391.914 411.536C392.746 411.536 393.514 411.419 394.218 411.184C394.922 410.949 395.626 410.629 396.33 410.224L397.578 412.528C396.746 413.083 395.796 413.531 394.73 413.872C393.684 414.213 392.586 414.384 391.434 414.384ZM391.05 400.752C389.962 400.752 389.002 401.072 388.17 401.712C387.359 402.352 386.836 403.312 386.602 404.592H394.954C394.826 403.312 394.42 402.352 393.738 401.712C393.076 401.072 392.18 400.752 391.05 400.752ZM413.853 414.384C412.659 414.384 411.645 414.224 410.813 413.904C410.003 413.584 409.341 413.136 408.829 412.56C408.339 411.963 407.976 411.248 407.741 410.416C407.528 409.584 407.421 408.667 407.421 407.664V401.2H403.229V398.448L407.581 398.288L408.061 393.36H411.101V398.288H418.269V401.2H411.101V407.664C411.101 408.965 411.368 409.925 411.901 410.544C412.456 411.141 413.405 411.44 414.749 411.44C415.411 411.44 416.019 411.387 416.573 411.28C417.128 411.152 417.661 410.992 418.173 410.8L418.877 413.488C418.173 413.723 417.416 413.925 416.605 414.096C415.795 414.288 414.877 414.384 413.853 414.384ZM451.94 414.384C450.468 414.384 449.06 414.117 447.716 413.584C446.372 413.051 445.178 412.293 444.132 411.312L446.308 408.784C447.098 409.488 447.994 410.064 448.996 410.512C449.999 410.939 451.055 411.152 452.164 411.152C453.38 411.152 454.308 410.917 454.948 410.448C455.588 409.979 455.908 409.371 455.908 408.624C455.908 408.155 455.823 407.771 455.652 407.472C455.482 407.152 455.236 406.875 454.916 406.64C454.618 406.405 454.244 406.192 453.796 406C453.37 405.808 452.9 405.605 452.388 405.392L449.54 404.144C448.986 403.931 448.442 403.664 447.908 403.344C447.375 403.024 446.895 402.64 446.468 402.192C446.042 401.744 445.7 401.221 445.444 400.624C445.188 400.027 445.06 399.344 445.06 398.576C445.06 397.744 445.242 396.976 445.604 396.272C445.967 395.547 446.468 394.917 447.108 394.384C447.748 393.851 448.506 393.435 449.38 393.136C450.276 392.837 451.258 392.688 452.324 392.688C453.604 392.688 454.82 392.933 455.972 393.424C457.146 393.893 458.17 394.533 459.044 395.344L457.124 397.712C456.42 397.157 455.674 396.72 454.884 396.4C454.116 396.08 453.199 395.92 452.132 395.92C451.13 395.92 450.319 396.133 449.7 396.56C449.103 396.987 448.804 397.595 448.804 398.384C448.804 398.789 448.9 399.141 449.092 399.44C449.284 399.717 449.54 399.973 449.86 400.208C450.202 400.421 450.586 400.613 451.012 400.784C451.46 400.955 451.919 401.136 452.388 401.328L455.14 402.512C455.802 402.768 456.41 403.067 456.964 403.408C457.519 403.749 457.999 404.144 458.404 404.592C458.81 405.04 459.119 405.563 459.332 406.16C459.567 406.736 459.684 407.408 459.684 408.176C459.684 409.029 459.503 409.829 459.14 410.576C458.799 411.323 458.298 411.984 457.636 412.56C456.975 413.115 456.164 413.563 455.204 413.904C454.244 414.224 453.156 414.384 451.94 414.384ZM472.248 414V401.2H465.432V398.288H475.928V414H472.248ZM473.848 395.408C473.101 395.408 472.472 395.184 471.96 394.736C471.469 394.288 471.224 393.691 471.224 392.944C471.224 392.197 471.469 391.6 471.96 391.152C472.472 390.683 473.101 390.448 473.848 390.448C474.594 390.448 475.213 390.683 475.704 391.152C476.216 391.6 476.472 392.197 476.472 392.944C476.472 393.691 476.216 394.288 475.704 394.736C475.213 395.184 474.594 395.408 473.848 395.408ZM485.483 414V412.016L494.923 401.2H486.539V398.288H500.107V400.24L490.635 411.056H500.363V414H485.483ZM514.239 414.384C513.044 414.384 511.924 414.203 510.879 413.84C509.833 413.456 508.916 412.912 508.127 412.208C507.359 411.504 506.751 410.64 506.303 409.616C505.855 408.592 505.631 407.429 505.631 406.128C505.631 404.848 505.855 403.707 506.303 402.704C506.751 401.68 507.348 400.816 508.095 400.112C508.863 399.387 509.727 398.843 510.687 398.48C511.668 398.096 512.692 397.904 513.759 397.904C514.932 397.904 515.967 398.096 516.863 398.48C517.759 398.843 518.516 399.355 519.135 400.016C519.753 400.656 520.223 401.435 520.543 402.352C520.863 403.269 521.023 404.272 521.023 405.36C521.023 405.723 521.001 406.075 520.959 406.416C520.937 406.736 520.905 407.003 520.863 407.216H509.311C509.524 408.688 510.111 409.776 511.071 410.48C512.031 411.184 513.247 411.536 514.719 411.536C515.551 411.536 516.319 411.419 517.023 411.184C517.727 410.949 518.431 410.629 519.135 410.224L520.383 412.528C519.551 413.083 518.601 413.531 517.535 413.872C516.489 414.213 515.391 414.384 514.239 414.384ZM513.855 400.752C512.767 400.752 511.807 401.072 510.975 401.712C510.164 402.352 509.641 403.312 509.407 404.592H517.759C517.631 403.312 517.225 402.352 516.543 401.712C515.881 401.072 514.985 400.752 513.855 400.752ZM261.365 462V441.072H274.773V444.208H265.077V449.552H273.301V452.688H265.077V458.864H275.093V462H261.365ZM280.168 462L285.864 453.84L280.552 446.288H284.552L286.6 449.264C286.856 449.691 287.134 450.139 287.432 450.608C287.731 451.056 288.03 451.504 288.328 451.952H288.456C288.691 451.504 288.947 451.045 289.224 450.576C289.502 450.107 289.758 449.659 289.992 449.232L291.848 446.288H295.72L290.376 454.224L296.104 462H292.104L289.832 458.896C289.534 458.469 289.214 458.011 288.872 457.52C288.552 457.029 288.232 456.56 287.912 456.112H287.784C287.486 456.581 287.198 457.051 286.92 457.52C286.664 457.968 286.387 458.437 286.088 458.928L284.04 462H280.168ZM301.628 468.208V446.288H304.668L304.956 448.08H305.052C305.734 447.461 306.513 446.949 307.388 446.544C308.284 446.117 309.18 445.904 310.076 445.904C311.1 445.904 312.006 446.096 312.796 446.48C313.606 446.843 314.278 447.376 314.812 448.08C315.366 448.784 315.782 449.627 316.06 450.608C316.358 451.589 316.508 452.688 316.508 453.904C316.508 455.248 316.316 456.453 315.932 457.52C315.548 458.565 315.025 459.451 314.364 460.176C313.724 460.88 312.977 461.424 312.124 461.808C311.292 462.192 310.428 462.384 309.532 462.384C308.806 462.384 308.06 462.224 307.292 461.904C306.545 461.584 305.862 461.125 305.244 460.528H305.148L305.34 463.28V468.208H301.628ZM308.764 459.344C309.894 459.344 310.833 458.896 311.58 458C312.326 457.083 312.7 455.728 312.7 453.936C312.7 452.357 312.412 451.131 311.836 450.256C311.26 449.381 310.332 448.944 309.052 448.944C308.454 448.944 307.846 449.093 307.228 449.392C306.609 449.691 305.98 450.171 305.34 450.832V457.904C305.916 458.437 306.502 458.811 307.1 459.024C307.718 459.237 308.273 459.344 308.764 459.344ZM330.031 462.384C328.837 462.384 327.717 462.203 326.671 461.84C325.626 461.456 324.709 460.912 323.919 460.208C323.151 459.504 322.543 458.64 322.095 457.616C321.647 456.592 321.423 455.429 321.423 454.128C321.423 452.848 321.647 451.707 322.095 450.704C322.543 449.68 323.141 448.816 323.887 448.112C324.655 447.387 325.519 446.843 326.479 446.48C327.461 446.096 328.485 445.904 329.551 445.904C330.725 445.904 331.759 446.096 332.655 446.48C333.551 446.843 334.309 447.355 334.927 448.016C335.546 448.656 336.015 449.435 336.335 450.352C336.655 451.269 336.815 452.272 336.815 453.36C336.815 453.723 336.794 454.075 336.751 454.416C336.73 454.736 336.698 455.003 336.655 455.216H325.103C325.317 456.688 325.903 457.776 326.863 458.48C327.823 459.184 329.039 459.536 330.511 459.536C331.343 459.536 332.111 459.419 332.815 459.184C333.519 458.949 334.223 458.629 334.927 458.224L336.175 460.528C335.343 461.083 334.394 461.531 333.327 461.872C332.282 462.213 331.183 462.384 330.031 462.384ZM329.647 448.752C328.559 448.752 327.599 449.072 326.767 449.712C325.957 450.352 325.434 451.312 325.199 452.592H333.551C333.423 451.312 333.018 450.352 332.335 449.712C331.674 449.072 330.778 448.752 329.647 448.752ZM350.947 462.384C349.709 462.384 348.557 462.203 347.491 461.84C346.445 461.477 345.528 460.944 344.739 460.24C343.971 459.536 343.363 458.672 342.915 457.648C342.488 456.624 342.275 455.461 342.275 454.16C342.275 452.859 342.509 451.696 342.979 450.672C343.469 449.648 344.12 448.784 344.931 448.08C345.741 447.376 346.691 446.843 347.779 446.48C348.867 446.096 350.008 445.904 351.203 445.904C352.483 445.904 353.603 446.117 354.563 446.544C355.544 446.971 356.365 447.493 357.027 448.112L355.267 450.416C354.648 449.925 354.019 449.552 353.379 449.296C352.76 449.04 352.099 448.912 351.395 448.912C349.816 448.912 348.536 449.392 347.555 450.352C346.573 451.291 346.083 452.56 346.083 454.16C346.083 454.949 346.211 455.664 346.467 456.304C346.723 456.944 347.075 457.499 347.523 457.968C347.992 458.416 348.547 458.768 349.187 459.024C349.827 459.259 350.531 459.376 351.299 459.376C352.195 459.376 353.005 459.205 353.731 458.864C354.477 458.523 355.16 458.117 355.779 457.648L357.315 460.016C356.397 460.805 355.384 461.403 354.275 461.808C353.187 462.192 352.077 462.384 350.947 462.384ZM372.918 462.384C371.724 462.384 370.71 462.224 369.878 461.904C369.068 461.584 368.406 461.136 367.894 460.56C367.404 459.963 367.041 459.248 366.806 458.416C366.593 457.584 366.486 456.667 366.486 455.664V449.2H362.294V446.448L366.646 446.288L367.126 441.36H370.166V446.288H377.334V449.2H370.166V455.664C370.166 456.965 370.433 457.925 370.966 458.544C371.521 459.141 372.47 459.44 373.814 459.44C374.476 459.44 375.084 459.387 375.638 459.28C376.193 459.152 376.726 458.992 377.238 458.8L377.942 461.488C377.238 461.723 376.481 461.925 375.67 462.096C374.86 462.288 373.942 462.384 372.918 462.384ZM388.394 462.384C387.626 462.384 386.922 462.267 386.282 462.032C385.642 461.819 385.087 461.509 384.618 461.104C384.148 460.699 383.786 460.219 383.53 459.664C383.274 459.088 383.146 458.459 383.146 457.776C383.146 456.901 383.348 456.133 383.754 455.472C384.159 454.789 384.799 454.213 385.674 453.744C386.548 453.275 387.668 452.891 389.034 452.592C390.399 452.293 392.052 452.08 393.994 451.952C393.93 451.056 393.61 450.32 393.034 449.744C392.458 449.168 391.53 448.88 390.25 448.88C389.354 448.88 388.468 449.051 387.594 449.392C386.74 449.712 385.908 450.096 385.098 450.544L383.754 448.08C384.714 447.525 385.812 447.024 387.05 446.576C388.287 446.128 389.578 445.904 390.922 445.904C393.119 445.904 394.794 446.491 395.946 447.664C397.098 448.816 397.674 450.491 397.674 452.688V462H394.666L394.378 460.048H394.282C393.45 460.688 392.522 461.243 391.498 461.712C390.495 462.16 389.46 462.384 388.394 462.384ZM389.514 459.504C390.303 459.504 391.06 459.333 391.786 458.992C392.532 458.629 393.268 458.16 393.994 457.584V454.256C392.586 454.363 391.412 454.512 390.474 454.704C389.535 454.875 388.788 455.099 388.234 455.376C387.679 455.653 387.284 455.973 387.05 456.336C386.815 456.677 386.698 457.061 386.698 457.488C386.698 458.192 386.964 458.704 387.498 459.024C388.052 459.344 388.724 459.504 389.514 459.504ZM413.853 462.384C412.659 462.384 411.645 462.224 410.813 461.904C410.003 461.584 409.341 461.136 408.829 460.56C408.339 459.963 407.976 459.248 407.741 458.416C407.528 457.584 407.421 456.667 407.421 455.664V449.2H403.229V446.448L407.581 446.288L408.061 441.36H411.101V446.288H418.269V449.2H411.101V455.664C411.101 456.965 411.368 457.925 411.901 458.544C412.456 459.141 413.405 459.44 414.749 459.44C415.411 459.44 416.019 459.387 416.573 459.28C417.128 459.152 417.661 458.992 418.173 458.8L418.877 461.488C418.173 461.723 417.416 461.925 416.605 462.096C415.795 462.288 414.877 462.384 413.853 462.384ZM431.313 462V449.2H424.497V446.288H434.993V462H431.313ZM432.913 443.408C432.166 443.408 431.537 443.184 431.025 442.736C430.534 442.288 430.289 441.691 430.289 440.944C430.289 440.197 430.534 439.6 431.025 439.152C431.537 438.683 432.166 438.448 432.913 438.448C433.659 438.448 434.278 438.683 434.769 439.152C435.281 439.6 435.537 440.197 435.537 440.944C435.537 441.691 435.281 442.288 434.769 442.736C434.278 443.184 433.659 443.408 432.913 443.408ZM451.876 462.384C450.852 462.384 449.86 462.203 448.9 461.84C447.94 461.477 447.098 460.944 446.372 460.24C445.647 459.536 445.06 458.672 444.612 457.648C444.186 456.624 443.972 455.461 443.972 454.16C443.972 452.859 444.186 451.696 444.612 450.672C445.06 449.648 445.647 448.784 446.372 448.08C447.098 447.376 447.94 446.843 448.9 446.48C449.86 446.096 450.852 445.904 451.876 445.904C452.9 445.904 453.892 446.096 454.852 446.48C455.812 446.843 456.655 447.376 457.38 448.08C458.106 448.784 458.682 449.648 459.108 450.672C459.556 451.696 459.78 452.859 459.78 454.16C459.78 455.461 459.556 456.624 459.108 457.648C458.682 458.672 458.106 459.536 457.38 460.24C456.655 460.944 455.812 461.477 454.852 461.84C453.892 462.203 452.9 462.384 451.876 462.384ZM451.876 459.376C453.156 459.376 454.159 458.907 454.884 457.968C455.61 457.008 455.972 455.739 455.972 454.16C455.972 452.56 455.61 451.291 454.884 450.352C454.159 449.392 453.156 448.912 451.876 448.912C450.596 448.912 449.594 449.392 448.868 450.352C448.143 451.291 447.78 452.56 447.78 454.16C447.78 455.739 448.143 457.008 448.868 457.968C449.594 458.907 450.596 459.376 451.876 459.376ZM465.368 462V446.288H468.408L468.696 448.656H468.824C469.57 447.909 470.392 447.269 471.288 446.736C472.205 446.181 473.272 445.904 474.488 445.904C476.301 445.904 477.634 446.459 478.488 447.568C479.341 448.656 479.768 450.224 479.768 452.272V462H476.056V452.752C476.056 451.472 475.832 450.544 475.384 449.968C474.957 449.371 474.2 449.072 473.112 449.072C472.344 449.072 471.661 449.253 471.064 449.616C470.466 449.979 469.805 450.533 469.08 451.28V462H465.368Z" fill="black"/>
<g filter="url(#filter1_d)">
<circle cx="809.5" cy="330" r="22" fill="#FF9E93" stroke="#FF7262" stroke-width="6"/>
</g>
<path d="M659.45 414V393.072H666.33C667.482 393.072 668.538 393.179 669.498 393.392C670.479 393.605 671.322 393.968 672.026 394.48C672.73 394.992 673.284 395.664 673.69 396.496C674.095 397.307 674.298 398.32 674.298 399.536C674.298 400.688 674.095 401.691 673.69 402.544C673.284 403.397 672.719 404.112 671.994 404.688C671.29 405.243 670.447 405.659 669.466 405.936C668.506 406.192 667.46 406.32 666.33 406.32H663.162V414H659.45ZM663.162 403.344H666.042C669.114 403.344 670.65 402.075 670.65 399.536C670.65 398.213 670.266 397.307 669.498 396.816C668.73 396.304 667.578 396.048 666.042 396.048H663.162V403.344ZM679.181 414V393.072H683.277L685.773 401.232L686.637 404.368H686.765L687.597 401.232L690.125 393.072H694.221V414H690.957V405.552C690.957 404.997 690.979 404.336 691.021 403.568C691.064 402.8 691.107 402.011 691.149 401.2C691.213 400.389 691.277 399.611 691.341 398.864C691.405 398.117 691.459 397.488 691.501 396.976H691.405L689.997 401.84L687.693 408.464H685.581L683.309 401.84L681.933 396.976H681.837C681.901 397.488 681.965 398.117 682.029 398.864C682.093 399.611 682.147 400.389 682.189 401.2C682.253 402.011 682.296 402.8 682.317 403.568C682.36 404.336 682.381 404.997 682.381 405.552V414H679.181ZM701.377 414V393.072H714.753V396.208H705.089V402.128H713.313V405.264H705.089V414H701.377ZM740.584 414V393.072H744.68L747.176 401.232L748.04 404.368H748.168L749 401.232L751.528 393.072H755.624V414H752.36V405.552C752.36 404.997 752.381 404.336 752.424 403.568C752.466 402.8 752.509 402.011 752.552 401.2C752.616 400.389 752.68 399.611 752.744 398.864C752.808 398.117 752.861 397.488 752.904 396.976H752.808L751.4 401.84L749.096 408.464H746.984L744.712 401.84L743.336 396.976H743.24C743.304 397.488 743.368 398.117 743.432 398.864C743.496 399.611 743.549 400.389 743.592 401.2C743.656 402.011 743.698 402.8 743.72 403.568C743.762 404.336 743.784 404.997 743.784 405.552V414H740.584ZM766.491 414.384C765.723 414.384 765.019 414.267 764.379 414.032C763.739 413.819 763.185 413.509 762.715 413.104C762.246 412.699 761.883 412.219 761.627 411.664C761.371 411.088 761.243 410.459 761.243 409.776C761.243 408.901 761.446 408.133 761.851 407.472C762.257 406.789 762.897 406.213 763.771 405.744C764.646 405.275 765.766 404.891 767.131 404.592C768.497 404.293 770.15 404.08 772.091 403.952C772.027 403.056 771.707 402.32 771.131 401.744C770.555 401.168 769.627 400.88 768.347 400.88C767.451 400.88 766.566 401.051 765.691 401.392C764.838 401.712 764.006 402.096 763.195 402.544L761.851 400.08C762.811 399.525 763.91 399.024 765.147 398.576C766.385 398.128 767.675 397.904 769.019 397.904C771.217 397.904 772.891 398.491 774.043 399.664C775.195 400.816 775.771 402.491 775.771 404.688V414H772.763L772.475 412.048H772.379C771.547 412.688 770.619 413.243 769.595 413.712C768.593 414.16 767.558 414.384 766.491 414.384ZM767.611 411.504C768.401 411.504 769.158 411.333 769.883 410.992C770.63 410.629 771.366 410.16 772.091 409.584V406.256C770.683 406.363 769.51 406.512 768.571 406.704C767.633 406.875 766.886 407.099 766.331 407.376C765.777 407.653 765.382 407.973 765.147 408.336C764.913 408.677 764.795 409.061 764.795 409.488C764.795 410.192 765.062 410.704 765.595 411.024C766.15 411.344 766.822 411.504 767.611 411.504ZM783.599 414V398.288H786.639L786.959 401.84H787.055C787.865 400.56 788.836 399.589 789.967 398.928C791.119 398.245 792.377 397.904 793.743 397.904C794.383 397.904 794.927 397.957 795.375 398.064C795.844 398.149 796.313 398.309 796.783 398.544L796.015 401.648C795.503 401.477 795.044 401.36 794.639 401.296C794.255 401.211 793.764 401.168 793.167 401.168C792.079 401.168 791.033 401.477 790.031 402.096C789.028 402.715 788.121 403.792 787.311 405.328V414H783.599ZM802.786 414V391.408H806.498V405.552H806.626L813.698 398.288H817.794L811.682 404.56L818.466 414H814.434L809.474 406.832L806.498 409.904V414H802.786ZM830.934 414.384C829.739 414.384 828.619 414.203 827.574 413.84C826.528 413.456 825.611 412.912 824.822 412.208C824.054 411.504 823.446 410.64 822.998 409.616C822.55 408.592 822.326 407.429 822.326 406.128C822.326 404.848 822.55 403.707 822.998 402.704C823.446 401.68 824.043 400.816 824.79 400.112C825.558 399.387 826.422 398.843 827.382 398.48C828.363 398.096 829.387 397.904 830.454 397.904C831.627 397.904 832.662 398.096 833.558 398.48C834.454 398.843 835.211 399.355 835.83 400.016C836.448 400.656 836.918 401.435 837.238 402.352C837.558 403.269 837.718 404.272 837.718 405.36C837.718 405.723 837.696 406.075 837.654 406.416C837.632 406.736 837.6 407.003 837.558 407.216H826.006C826.219 408.688 826.806 409.776 827.766 410.48C828.726 411.184 829.942 411.536 831.414 411.536C832.246 411.536 833.014 411.419 833.718 411.184C834.422 410.949 835.126 410.629 835.83 410.224L837.078 412.528C836.246 413.083 835.296 413.531 834.23 413.872C833.184 414.213 832.086 414.384 830.934 414.384ZM830.55 400.752C829.462 400.752 828.502 401.072 827.67 401.712C826.859 402.352 826.336 403.312 826.102 404.592H834.454C834.326 403.312 833.92 402.352 833.238 401.712C832.576 401.072 831.68 400.752 830.55 400.752ZM853.353 414.384C852.159 414.384 851.145 414.224 850.313 413.904C849.503 413.584 848.841 413.136 848.329 412.56C847.839 411.963 847.476 411.248 847.241 410.416C847.028 409.584 846.921 408.667 846.921 407.664V401.2H842.729V398.448L847.081 398.288L847.561 393.36H850.601V398.288H857.769V401.2H850.601V407.664C850.601 408.965 850.868 409.925 851.401 410.544C851.956 411.141 852.905 411.44 854.249 411.44C854.911 411.44 855.519 411.387 856.073 411.28C856.628 411.152 857.161 410.992 857.673 410.8L858.377 413.488C857.673 413.723 856.916 413.925 856.105 414.096C855.295 414.288 854.377 414.384 853.353 414.384ZM891.44 414.384C889.968 414.384 888.56 414.117 887.216 413.584C885.872 413.051 884.678 412.293 883.632 411.312L885.808 408.784C886.598 409.488 887.494 410.064 888.496 410.512C889.499 410.939 890.555 411.152 891.664 411.152C892.88 411.152 893.808 410.917 894.448 410.448C895.088 409.979 895.408 409.371 895.408 408.624C895.408 408.155 895.323 407.771 895.152 407.472C894.982 407.152 894.736 406.875 894.416 406.64C894.118 406.405 893.744 406.192 893.296 406C892.87 405.808 892.4 405.605 891.888 405.392L889.04 404.144C888.486 403.931 887.942 403.664 887.408 403.344C886.875 403.024 886.395 402.64 885.968 402.192C885.542 401.744 885.2 401.221 884.944 400.624C884.688 400.027 884.56 399.344 884.56 398.576C884.56 397.744 884.742 396.976 885.104 396.272C885.467 395.547 885.968 394.917 886.608 394.384C887.248 393.851 888.006 393.435 888.88 393.136C889.776 392.837 890.758 392.688 891.824 392.688C893.104 392.688 894.32 392.933 895.472 393.424C896.646 393.893 897.67 394.533 898.544 395.344L896.624 397.712C895.92 397.157 895.174 396.72 894.384 396.4C893.616 396.08 892.699 395.92 891.632 395.92C890.63 395.92 889.819 396.133 889.2 396.56C888.603 396.987 888.304 397.595 888.304 398.384C888.304 398.789 888.4 399.141 888.592 399.44C888.784 399.717 889.04 399.973 889.36 400.208C889.702 400.421 890.086 400.613 890.512 400.784C890.96 400.955 891.419 401.136 891.888 401.328L894.64 402.512C895.302 402.768 895.91 403.067 896.464 403.408C897.019 403.749 897.499 404.144 897.904 404.592C898.31 405.04 898.619 405.563 898.832 406.16C899.067 406.736 899.184 407.408 899.184 408.176C899.184 409.029 899.003 409.829 898.64 410.576C898.299 411.323 897.798 411.984 897.136 412.56C896.475 413.115 895.664 413.563 894.704 413.904C893.744 414.224 892.656 414.384 891.44 414.384ZM911.748 414V401.2H904.932V398.288H915.428V414H911.748ZM913.348 395.408C912.601 395.408 911.972 395.184 911.46 394.736C910.969 394.288 910.724 393.691 910.724 392.944C910.724 392.197 910.969 391.6 911.46 391.152C911.972 390.683 912.601 390.448 913.348 390.448C914.094 390.448 914.713 390.683 915.204 391.152C915.716 391.6 915.972 392.197 915.972 392.944C915.972 393.691 915.716 394.288 915.204 394.736C914.713 395.184 914.094 395.408 913.348 395.408ZM924.983 414V412.016L934.423 401.2H926.039V398.288H939.607V400.24L930.135 411.056H939.863V414H924.983ZM953.739 414.384C952.544 414.384 951.424 414.203 950.379 413.84C949.333 413.456 948.416 412.912 947.627 412.208C946.859 411.504 946.251 410.64 945.803 409.616C945.355 408.592 945.131 407.429 945.131 406.128C945.131 404.848 945.355 403.707 945.803 402.704C946.251 401.68 946.848 400.816 947.595 400.112C948.363 399.387 949.227 398.843 950.187 398.48C951.168 398.096 952.192 397.904 953.259 397.904C954.432 397.904 955.467 398.096 956.363 398.48C957.259 398.843 958.016 399.355 958.635 400.016C959.253 400.656 959.723 401.435 960.043 402.352C960.363 403.269 960.523 404.272 960.523 405.36C960.523 405.723 960.501 406.075 960.459 406.416C960.437 406.736 960.405 407.003 960.363 407.216H948.811C949.024 408.688 949.611 409.776 950.571 410.48C951.531 411.184 952.747 411.536 954.219 411.536C955.051 411.536 955.819 411.419 956.523 411.184C957.227 410.949 957.931 410.629 958.635 410.224L959.883 412.528C959.051 413.083 958.101 413.531 957.035 413.872C955.989 414.213 954.891 414.384 953.739 414.384ZM953.355 400.752C952.267 400.752 951.307 401.072 950.475 401.712C949.664 402.352 949.141 403.312 948.907 404.592H957.259C957.131 403.312 956.725 402.352 956.043 401.712C955.381 401.072 954.485 400.752 953.355 400.752ZM741.192 462V441.072H748.168C749.256 441.072 750.269 441.179 751.208 441.392C752.146 441.605 752.957 441.957 753.64 442.448C754.344 442.917 754.888 443.547 755.272 444.336C755.677 445.125 755.88 446.107 755.88 447.28C755.88 448.88 755.496 450.171 754.728 451.152C753.981 452.133 752.978 452.837 751.72 453.264L756.712 462H752.52L748.04 453.808H744.904V462H741.192ZM744.904 450.864H747.784C749.234 450.864 750.333 450.565 751.08 449.968C751.848 449.371 752.232 448.475 752.232 447.28C752.232 446.064 751.848 445.221 751.08 444.752C750.333 444.283 749.234 444.048 747.784 444.048H744.904V450.864ZM769.531 462.384C768.337 462.384 767.217 462.203 766.171 461.84C765.126 461.456 764.209 460.912 763.419 460.208C762.651 459.504 762.043 458.64 761.595 457.616C761.147 456.592 760.923 455.429 760.923 454.128C760.923 452.848 761.147 451.707 761.595 450.704C762.043 449.68 762.641 448.816 763.387 448.112C764.155 447.387 765.019 446.843 765.979 446.48C766.961 446.096 767.985 445.904 769.051 445.904C770.225 445.904 771.259 446.096 772.155 446.48C773.051 446.843 773.809 447.355 774.427 448.016C775.046 448.656 775.515 449.435 775.835 450.352C776.155 451.269 776.315 452.272 776.315 453.36C776.315 453.723 776.294 454.075 776.251 454.416C776.23 454.736 776.198 455.003 776.155 455.216H764.603C764.817 456.688 765.403 457.776 766.363 458.48C767.323 459.184 768.539 459.536 770.011 459.536C770.843 459.536 771.611 459.419 772.315 459.184C773.019 458.949 773.723 458.629 774.427 458.224L775.675 460.528C774.843 461.083 773.894 461.531 772.827 461.872C771.782 462.213 770.683 462.384 769.531 462.384ZM769.147 448.752C768.059 448.752 767.099 449.072 766.267 449.712C765.457 450.352 764.934 451.312 764.699 452.592H773.051C772.923 451.312 772.518 450.352 771.835 449.712C771.174 449.072 770.278 448.752 769.147 448.752ZM786.959 462.384C786.191 462.384 785.487 462.267 784.847 462.032C784.207 461.819 783.652 461.509 783.183 461.104C782.713 460.699 782.351 460.219 782.095 459.664C781.839 459.088 781.711 458.459 781.711 457.776C781.711 456.901 781.913 456.133 782.319 455.472C782.724 454.789 783.364 454.213 784.239 453.744C785.113 453.275 786.233 452.891 787.599 452.592C788.964 452.293 790.617 452.08 792.559 451.952C792.495 451.056 792.175 450.32 791.599 449.744C791.023 449.168 790.095 448.88 788.815 448.88C787.919 448.88 787.033 449.051 786.159 449.392C785.305 449.712 784.473 450.096 783.663 450.544L782.319 448.08C783.279 447.525 784.377 447.024 785.615 446.576C786.852 446.128 788.143 445.904 789.487 445.904C791.684 445.904 793.359 446.491 794.511 447.664C795.663 448.816 796.239 450.491 796.239 452.688V462H793.231L792.943 460.048H792.847C792.015 460.688 791.087 461.243 790.063 461.712C789.06 462.16 788.025 462.384 786.959 462.384ZM788.079 459.504C788.868 459.504 789.625 459.333 790.351 458.992C791.097 458.629 791.833 458.16 792.559 457.584V454.256C791.151 454.363 789.977 454.512 789.039 454.704C788.1 454.875 787.353 455.099 786.799 455.376C786.244 455.653 785.849 455.973 785.615 456.336C785.38 456.677 785.263 457.061 785.263 457.488C785.263 458.192 785.529 458.704 786.063 459.024C786.617 459.344 787.289 459.504 788.079 459.504ZM812.738 462.384C810.904 462.384 809.506 461.851 808.546 460.784C807.608 459.717 807.138 458.213 807.138 456.272V442.32H801.89V439.408H810.818V456.464C810.818 457.531 811.085 458.288 811.618 458.736C812.173 459.163 812.845 459.376 813.634 459.376C814.466 459.376 815.362 459.173 816.322 458.768L817.186 461.488C816.418 461.787 815.714 462.011 815.074 462.16C814.434 462.309 813.656 462.384 812.738 462.384ZM829.878 462V449.2H823.062V446.288H833.558V462H829.878ZM831.478 443.408C830.731 443.408 830.102 443.184 829.59 442.736C829.099 442.288 828.854 441.691 828.854 440.944C828.854 440.197 829.099 439.6 829.59 439.152C830.102 438.683 830.731 438.448 831.478 438.448C832.224 438.448 832.843 438.683 833.334 439.152C833.846 439.6 834.102 440.197 834.102 440.944C834.102 441.691 833.846 442.288 833.334 442.736C832.843 443.184 832.224 443.408 831.478 443.408ZM853.353 462.384C852.159 462.384 851.145 462.224 850.313 461.904C849.503 461.584 848.841 461.136 848.329 460.56C847.839 459.963 847.476 459.248 847.241 458.416C847.028 457.584 846.921 456.667 846.921 455.664V449.2H842.729V446.448L847.081 446.288L847.561 441.36H850.601V446.288H857.769V449.2H850.601V455.664C850.601 456.965 850.868 457.925 851.401 458.544C851.956 459.141 852.905 459.44 854.249 459.44C854.911 459.44 855.519 459.387 856.073 459.28C856.628 459.152 857.161 458.992 857.673 458.8L858.377 461.488C857.673 461.723 856.916 461.925 856.105 462.096C855.295 462.288 854.377 462.384 853.353 462.384ZM865.693 468.464C865.266 468.464 864.861 468.432 864.477 468.368C864.093 468.325 863.751 468.251 863.453 468.144L864.157 465.264C864.37 465.328 864.583 465.381 864.797 465.424C865.01 465.467 865.234 465.488 865.469 465.488C866.471 465.488 867.271 465.232 867.869 464.72C868.466 464.229 868.925 463.589 869.245 462.8L869.629 461.808L862.589 446.288H866.269L869.501 454C869.799 454.704 870.087 455.451 870.365 456.24C870.642 457.029 870.93 457.819 871.229 458.608H871.357C871.591 457.861 871.847 457.093 872.125 456.304C872.402 455.515 872.669 454.747 872.925 454L875.773 446.288H879.261L872.701 462.704C872.359 463.6 871.975 464.4 871.549 465.104C871.143 465.808 870.663 466.405 870.109 466.896C869.554 467.408 868.914 467.792 868.189 468.048C867.463 468.325 866.631 468.464 865.693 468.464Z" fill="black"/>
<defs>
<filter id="filter0_d" x="267" y="155" width="206" height="206" filterUnits="userSpaceOnUse" color-interpolation-filters="sRGB">
<feFlood flood-opacity="0" result="BackgroundImageFix"/>
<feColorMatrix in="SourceAlpha" type="matrix" values="0 0 0 0 0 0 0 0 0 0 0 0 0 0 0 0 0 0 127 0"/>
<feOffset dy="3"/>
<feGaussianBlur stdDeviation="1.5"/>
<feColorMatrix type="matrix" values="0 0 0 0 0 0 0 0 0 0 0 0 0 0 0 0 0 0 0.15 0"/>
<feBlend mode="normal" in2="BackgroundImageFix" result="effect1_dropShadow"/>
<feBlend mode="normal" in="SourceGraphic" in2="effect1_dropShadow" result="shape"/>
</filter>
<filter id="filter1_d" x="706.5" y="155" width="206" height="206" filterUnits="userSpaceOnUse" color-interpolation-filters="sRGB">
<feFlood flood-opacity="0" result="BackgroundImageFix"/>
<feColorMatrix in="SourceAlpha" type="matrix" values="0 0 0 0 0 0 0 0 0 0 0 0 0 0 0 0 0 0 127 0"/>
<feOffset dy="3"/>
<feGaussianBlur stdDeviation="1.5"/>
<feColorMatrix type="matrix" values="0 0 0 0 0 0 0 0 0 0 0 0 0 0 0 0 0 0 0.15 0"/>
<feBlend mode="normal" in2="BackgroundImageFix" result="effect1_dropShadow"/>
<feBlend mode="normal" in="SourceGraphic" in2="effect1_dropShadow" result="shape"/>
</filter>
</defs>
</svg>
